<?xml version="1.0" encoding="utf-8"?>
<!-- Generator: Adobe Illustrator 28.0.0, SVG Export Plug-In . SVG Version: 6.00 Build 0)  -->
<svg version="1.1" xmlns="http://www.w3.org/2000/svg" xmlns:xlink="http://www.w3.org/1999/xlink" x="0px" y="0px"
	 viewBox="0 0 600 600" style="enable-background:new 0 0 600 600;" xml:space="preserve">
<style type="text/css">
	.st0{fill:#FFFFFF;}
	.st1{fill:#BCC1C1;}
	.st2{fill:#1F394C;}
	.st3{fill:#D8DDDE;}
	.st4{fill:#989FA0;}
	.st5{fill:#F20365;}
</style>
<g id="bg-white">
	<rect x="0" y="0" class="st0" width="600" height="600"/>
</g>
<g id="art">
	<g>
		<g>
			<path class="st1" d="M277.07,338.48c-0.74,0-1.49-0.12-2.22-0.39c-35.08-12.64-65.05-30.77-89.08-53.91
				c-27.72-26.69-46.51-59.67-52.9-92.86c-6.07-31.51-0.46-61.14,15.4-81.28c17.84-22.66,38.96-27.49,53.54-27.54
				c19.32-0.09,38.63,8.47,49.27,21.77c2.26,2.83,1.8,6.95-1.02,9.21c-2.82,2.26-6.95,1.8-9.21-1.02
				c-6.72-8.4-21.31-16.85-38.77-16.85c-0.07,0-0.14,0-0.21,0c-11.69,0.05-28.69,3.99-43.29,22.55
				c-13.5,17.15-18.18,42.92-12.83,70.69c5.89,30.56,23.33,61.07,49.12,85.9c22.69,21.85,51.1,39.01,84.43,51.02
				c3.4,1.23,5.17,4.98,3.94,8.38C282.27,336.82,279.75,338.48,277.07,338.48z"/>
			<path class="st1" d="M284.76,338.48c-2.68,0-5.2-1.66-6.16-4.33c-1.23-3.4,0.54-7.16,3.94-8.38
				c33.33-12.01,61.74-29.17,84.43-51.02c25.79-24.83,43.24-55.34,49.13-85.9c5.35-27.78,0.67-53.54-12.83-70.69
				c-14.6-18.55-31.6-22.5-43.29-22.55c-0.07,0-0.14,0-0.21,0c-17.47,0-32.05,8.45-38.77,16.85c-2.26,2.82-6.38,3.28-9.21,1.02
				c-2.82-2.26-3.28-6.38-1.02-9.21c10.59-13.24,29.81-21.77,49.01-21.77c0.08,0,0.17,0,0.25,0c14.58,0.06,35.7,4.88,53.54,27.54
				c15.85,20.14,21.47,49.76,15.4,81.28c-6.39,33.19-25.18,66.17-52.9,92.86c-24.03,23.14-54,41.27-89.08,53.91
				C286.25,338.36,285.5,338.48,284.76,338.48z"/>
			<path class="st2" d="M257.85,96.78c-4.99-3.39-14.69-7.76-19.18-9.28c-5.13-1.74-10.54,0.27-13.14,4.89
				c-2.97,5.26-0.84,10.71,2.58,13.77c3.52,3.14,14.05,10.01,17.88,11.65c1.6,0.69,3.44,1.07,5.29,1c3.33-0.12,6.7-1.66,8.79-5.37
				l1.32-2.34C264.44,105.72,263.12,100.36,257.85,96.78z"/>
			<path class="st2" d="M336.3,92.4c-2.61-4.62-8.01-6.63-13.14-4.89c-4.49,1.52-14.19,5.89-19.18,9.27
				c-5.27,3.58-6.59,8.93-3.55,14.33l1.32,2.34c2.1,3.71,5.46,5.26,8.79,5.37c1.85,0.06,3.69-0.31,5.29-1
				c3.83-1.65,14.36-8.51,17.88-11.65C337.14,103.11,339.27,97.67,336.3,92.4z"/>
			<path class="st2" d="M277.61,342.58c-1.2,0-2.42-0.2-3.61-0.63c-35.63-12.83-66.08-31.28-90.53-54.81
				c-4.24-4.08-0.83-7.28,3.25-11.52c4.08-4.23,7.28-7.9,11.52-3.82c22.27,21.45,50.19,38.31,82.98,50.12
				c5.53,1.99,8.4,8.09,6.41,13.62C286.07,339.88,281.98,342.58,277.61,342.58z"/>
			<path class="st2" d="M285.31,342.58c-4.36,0-8.45-2.7-10.02-7.04c-1.99-5.53,0.88-11.63,6.41-13.62
				c32.79-11.81,60.71-28.67,82.98-50.12c4.24-4.08,7.28-0.25,11.36,3.98c4.08,4.24,7.65,7.28,3.41,11.35
				c-24.45,23.54-54.91,41.98-90.53,54.81C287.73,342.37,286.51,342.58,285.31,342.58z"/>
		</g>
		<path class="st2" d="M352.9,532.5c-3.82,0-7.65-0.32-11.45-0.96c-22.55-3.83-40.47-15.32-53.26-34.16
			c-38.51-56.71-16.76-161.69-15.82-166.13c1.13-5.31,6.35-8.69,11.66-7.57c5.31,1.13,8.7,6.35,7.57,11.65l0,0
			c-0.21,1.01-20.95,101.27,12.87,151.03c9.8,14.42,22.98,22.86,40.28,25.8c13.64,2.31,27.87-1.31,40.07-10.19
			c12.66-9.22,28.94-28.41,34.58-67.44c0.78-5.37,5.77-9.09,11.13-8.32c5.37,0.78,9.1,5.76,8.32,11.13
			c-6.62,45.81-26.75,69.07-42.46,80.52C383.19,527.46,368.08,532.5,352.9,532.5z"/>
		<path class="st2" d="M433.62,438.16c-26.74,0-48.5-21.76-48.5-48.5c0-26.74,21.76-48.5,48.5-48.5c26.74,0,48.5,21.76,48.5,48.5
			C482.12,416.4,460.36,438.16,433.62,438.16z"/>
		<circle class="st3" cx="433.62" cy="389.66" r="37.5"/>
		<g>
			<circle class="st0" cx="433.62" cy="389.66" r="20.5"/>
			<path class="st4" d="M433.62,414.16c-13.51,0-24.5-10.99-24.5-24.5c0-13.51,10.99-24.5,24.5-24.5c13.51,0,24.5,10.99,24.5,24.5
				C458.12,403.17,447.13,414.16,433.62,414.16z M433.62,373.16c-9.1,0-16.5,7.4-16.5,16.5c0,9.1,7.4,16.5,16.5,16.5
				c9.1,0,16.5-7.4,16.5-16.5C450.12,380.56,442.72,373.16,433.62,373.16z"/>
		</g>
		<path class="st5" d="M361.93,178.76c-10.21-38.66-53.8-50.33-79.67-14.28c-25.88-36.05-72.23-24.41-82.34,14.28
			c-12.69,48.58,55.89,88.35,79.57,100.09c1.85,0.92,4.02,0.89,5.85-0.09C309.01,266.14,374.23,225.33,361.93,178.76z"/>
	</g>
</g>
</svg>
