<?xml version="1.0" encoding="utf-8"?>
<!-- Generator: Adobe Illustrator 28.0.0, SVG Export Plug-In . SVG Version: 6.00 Build 0)  -->
<svg version="1.1" id="Layer_1" xmlns="http://www.w3.org/2000/svg" xmlns:xlink="http://www.w3.org/1999/xlink" x="0px" y="0px"
	 viewBox="0 0 600 600" style="enable-background:new 0 0 600 600;" xml:space="preserve">
<style type="text/css">
	.st0{display:none;}
	.st1{display:inline;}
	.st2{fill:#BCC1C1;}
	.st3{fill:#1F394C;}
	.st4{fill:#D8DDDE;}
	.st5{fill:#FFFFFF;}
	.st6{fill:#989FA0;}
	.st7{fill:#F20365;}
</style>
<g id="bg-white" class="st0">
	<rect class="st1" width="600" height="600"/>
</g>
<g id="art">
	<g>
		<g>
			<path class="st2" d="M277.1,338.5c-0.7,0-1.5-0.1-2.2-0.4c-35.1-12.6-65.1-30.8-89.1-53.9c-27.7-26.7-46.5-59.7-52.9-92.9
				c-6.1-31.5-0.5-61.1,15.4-81.3c17.8-22.7,39-27.5,53.5-27.5c19.3-0.1,38.6,8.5,49.3,21.8c2.3,2.8,1.8,6.9-1,9.2s-6.9,1.8-9.2-1
				c-6.7-8.4-21.3-16.8-38.8-16.8c-0.1,0-0.1,0-0.2,0c-11.7,0.1-28.7,4-43.3,22.5c-13.5,17.1-18.2,42.9-12.8,70.7
				c5.9,30.6,23.3,61.1,49.1,85.9c22.7,21.9,51.1,39,84.4,51c3.4,1.2,5.2,5,3.9,8.4C282.3,336.8,279.8,338.5,277.1,338.5z"/>
			<path class="st2" d="M284.8,338.5c-2.7,0-5.2-1.7-6.2-4.3c-1.2-3.4,0.5-7.2,3.9-8.4c33.3-12,61.7-29.2,84.4-51
				c25.8-24.8,43.2-55.3,49.1-85.9c5.4-27.8,0.7-53.5-12.8-70.7c-14.6-18.6-31.6-22.5-43.3-22.6c-0.1,0-0.1,0-0.2,0
				c-17.5,0-32,8.4-38.8,16.8c-2.3,2.8-6.4,3.3-9.2,1c-2.8-2.3-3.3-6.4-1-9.2c10.6-13.2,29.8-21.8,49-21.8c0.1,0,0.2,0,0.2,0
				c14.6,0.1,35.7,4.9,53.5,27.5c15.9,20.1,21.5,49.8,15.4,81.3c-6.4,33.2-25.2,66.2-52.9,92.9c-24,23.1-54,41.3-89.1,53.9
				C286.2,338.4,285.5,338.5,284.8,338.5z"/>
			<path class="st3" d="M257.9,96.8c-5-3.4-14.7-7.8-19.2-9.3c-5.1-1.7-10.5,0.3-13.1,4.9c-3,5.3-0.8,10.7,2.6,13.8
				c3.5,3.1,14.1,10,17.9,11.7c1.6,0.7,3.4,1.1,5.3,1c3.3-0.1,6.7-1.7,8.8-5.4l1.3-2.3C264.4,105.7,263.1,100.4,257.9,96.8z"/>
			<path class="st3" d="M336.3,92.4c-2.6-4.6-8-6.6-13.1-4.9c-4.5,1.5-14.2,5.9-19.2,9.3c-5.3,3.6-6.6,8.9-3.5,14.3l1.3,2.3
				c2.1,3.7,5.5,5.3,8.8,5.4c1.9,0.1,3.7-0.3,5.3-1c3.8-1.7,14.4-8.5,17.9-11.7C337.1,103.1,339.3,97.7,336.3,92.4z"/>
			<path class="st3" d="M277.6,342.6c-1.2,0-2.4-0.2-3.6-0.6c-35.6-12.8-66.1-31.3-90.5-54.8c-4.2-4.1-0.8-7.3,3.2-11.5
				c4.1-4.2,7.3-7.9,11.5-3.8c22.3,21.5,50.2,38.3,83,50.1c5.5,2,8.4,8.1,6.4,13.6C286.1,339.9,282,342.6,277.6,342.6z"/>
			<path class="st3" d="M285.3,342.6c-4.4,0-8.5-2.7-10-7c-2-5.5,0.9-11.6,6.4-13.6c32.8-11.8,60.7-28.7,83-50.1
				c4.2-4.1,7.3-0.2,11.4,4c4.1,4.2,7.6,7.3,3.4,11.4c-24.5,23.5-54.9,42-90.5,54.8C287.7,342.4,286.5,342.6,285.3,342.6z"/>
		</g>
		<path class="st3" d="M352.9,532.5c-3.8,0-7.6-0.3-11.5-1c-22.5-3.8-40.5-15.3-53.3-34.2c-38.5-56.7-16.8-161.7-15.8-166.1
			c1.1-5.3,6.4-8.7,11.7-7.6c5.3,1.1,8.7,6.4,7.6,11.6l0,0c-0.2,1-21,101.3,12.9,151c9.8,14.4,23,22.9,40.3,25.8
			c13.6,2.3,27.9-1.3,40.1-10.2c12.7-9.2,28.9-28.4,34.6-67.4c0.8-5.4,5.8-9.1,11.1-8.3c5.4,0.8,9.1,5.8,8.3,11.1
			c-6.6,45.8-26.8,69.1-42.5,80.5C383.2,527.5,368.1,532.5,352.9,532.5z"/>
		<path class="st3" d="M433.6,438.2c-26.7,0-48.5-21.8-48.5-48.5s21.8-48.5,48.5-48.5s48.5,21.8,48.5,48.5S460.4,438.2,433.6,438.2z
			"/>
		<circle class="st4" cx="433.6" cy="389.7" r="37.5"/>
		<g>
			<circle class="st5" cx="433.6" cy="389.7" r="20.5"/>
			<path class="st6" d="M433.6,414.2c-13.5,0-24.5-11-24.5-24.5s11-24.5,24.5-24.5s24.5,11,24.5,24.5S447.1,414.2,433.6,414.2z
				 M433.6,373.2c-9.1,0-16.5,7.4-16.5,16.5s7.4,16.5,16.5,16.5s16.5-7.4,16.5-16.5S442.7,373.2,433.6,373.2z"/>
		</g>
		<path class="st7" d="M361.9,178.8c-10.2-38.7-53.8-50.3-79.7-14.3c-25.9-36.1-72.2-24.4-82.3,14.3
			c-12.7,48.6,55.9,88.3,79.6,100.1c1.9,0.9,4,0.9,5.9-0.1C309,266.1,374.2,225.3,361.9,178.8z"/>
	</g>
</g>
</svg>
